<svg width="16" height="17" viewBox="0 0 16 17" fill="none" xmlns="http://www.w3.org/2000/svg">
<path d="M14.6663 8.49967C14.6663 4.81777 11.6815 1.83301 7.99967 1.83301C4.31777 1.83301 1.33301 4.81777 1.33301 8.49967C1.33301 12.1815 4.31777 15.1663 7.99967 15.1663C8.56081 15.1663 9.33301 15.2439 9.33301 14.4997C9.33301 14.0937 9.12181 13.7805 8.91207 13.4693C8.60514 13.014 8.30121 12.5632 8.66634 11.833C9.11081 10.9441 9.85154 10.9441 10.9873 10.9441C11.5553 10.9441 12.2219 10.9441 12.9997 10.833C14.4003 10.6329 14.6663 9.77194 14.6663 8.49967Z" stroke="#111111"/>
<path d="M4.66699 10.5016L4.67278 10.5" stroke="#111111" stroke-width="1.33333" stroke-linecap="round" stroke-linejoin="round"/>
<path d="M6.33301 7.16699C6.88529 7.16699 7.33301 6.71928 7.33301 6.16699C7.33301 5.61471 6.88529 5.16699 6.33301 5.16699C5.78072 5.16699 5.33301 5.61471 5.33301 6.16699C5.33301 6.71928 5.78072 7.16699 6.33301 7.16699Z" stroke="#111111"/>
<path d="M11 7.83301C11.5523 7.83301 12 7.38529 12 6.83301C12 6.28072 11.5523 5.83301 11 5.83301C10.4477 5.83301 10 6.28072 10 6.83301C10 7.38529 10.4477 7.83301 11 7.83301Z" stroke="#111111"/>
</svg>
