<svg width="21" height="30" viewBox="0 0 21 30" fill="none" xmlns="http://www.w3.org/2000/svg">
<path d="M9.57165 5.72927C9.94407 5.46489 10.1768 5.43719 10.5563 5.72747C12.16 6.95378 13.7948 8.13777 15.4185 9.33734L19.7299 12.5236C19.8888 10.8218 19.7732 9.24992 19.8612 7.68172C19.8777 7.39037 19.7202 7.2334 19.5134 7.08075C16.5062 4.8624 13.5022 2.63985 10.5015 0.413076C10.2303 0.211345 10.0548 0.235968 9.79338 0.419386C6.78557 2.54108 3.77256 4.65614 0.754367 6.76456C0.485876 6.95254 0.353918 7.15773 0.35911 7.50883C0.370717 8.36225 0.322194 9.21666 0.321655 10.0711C0.320599 10.7475 0.353911 11.4236 0.374749 12.1946C0.641152 12.0088 0.858407 11.8594 1.07347 11.7086C3.9101 9.71826 6.74982 7.7366 9.57165 5.72927Z" fill="#111111"/>
<path d="M10.8764 24.2182C10.2436 24.6536 10.2436 24.6521 9.6478 24.2036C6.85466 22.1145 4.06106 20.026 1.267 17.9383C1.10766 17.8192 0.979643 17.5873 0.679946 17.7071C0.66034 19.1809 0.661086 20.6659 0.608063 22.1487C0.592331 22.6001 0.766539 22.8453 1.09907 23.0925C3.96259 25.2241 6.82332 27.3586 9.66337 29.5228C10.0772 29.8382 10.3305 29.7765 10.7143 29.5074C13.3 27.6923 15.9028 25.9013 18.4996 24.1026C18.9025 23.8235 19.3015 23.538 19.7103 23.2682C19.9214 23.1269 20.0772 22.9829 20.0806 22.6868C20.0956 21.12 20.1299 19.5533 20.16 17.8078C19.781 18.0659 19.5608 18.2132 19.3422 18.3641L10.8764 24.2182Z" fill="#111111"/>
<path d="M0.585869 14.8958L10.1023 22.0284L19.9115 15.2694L10.3331 8.25709L0.585869 14.8958Z" stroke="#111111" stroke-width="0.36271" stroke-miterlimit="10"/>
</svg>
